<svg id="Layer_1" data-name="Layer 1" xmlns="http://www.w3.org/2000/svg" xmlns:xlink="http://www.w3.org/1999/xlink" viewBox="0 0 652.56 313.8"><defs><style>.cls-1{fill:url(#linear-gradient);}.cls-2{fill:url(#linear-gradient-2);}.cls-3{fill:url(#linear-gradient-3);}.cls-4{fill:url(#linear-gradient-4);}.cls-5{fill:#1b3c6c;}</style><linearGradient id="linear-gradient" x1="327.65" y1="168.74" x2="157.83" y2="405.75" gradientUnits="userSpaceOnUse"><stop offset="0" stop-color="#1b3c6c"/><stop offset="1" stop-color="#7ececc"/></linearGradient><linearGradient id="linear-gradient-2" x1="524.91" y1="187.06" x2="622.38" y2="187.06" gradientTransform="matrix(-0.99, 0.17, 0.17, 0.99, 824.11, -58.76)" xlink:href="#linear-gradient"/><linearGradient id="linear-gradient-3" x1="701.59" y1="233.56" x2="769.54" y2="233.56" gradientTransform="matrix(-1, 0.05, 0.05, 1, 865.06, -25.8)" xlink:href="#linear-gradient"/><linearGradient id="linear-gradient-4" x1="587.66" y1="97.82" x2="677.13" y2="97.82" gradientTransform="matrix(-0.95, 0.32, 0.32, 0.95, 770.25, -92.39)" xlink:href="#linear-gradient"/></defs><title>logo-full</title><path id="head" class="cls-1" d="M233.63,144.14A207,207,0,0,1,290,152.25c59.16,16.84,57.43,70.08,57.48,81.81s-3.82,23,12.37,40S381.48,297.9,380,303.76s-14.61,10.8-20,17.66,3.48,13.67,3.49,16.11-5.83,8.32-5.83,8.32,3.91,1,2.48,7.8-6.34,3.94-5.81,11.75,6.44,21.45-.85,29.79-35.33,1.47-60,9.52c-17.49,5.71-32.17,24.8-39.77,45.93L143.2,391.29c2.63-22.68-6.63-44.06-19.48-69.87-17.73-35.57-41.76-79.43-1-128.93,28.13-34.14,68.89-48.35,110.9-48.35m0-3c-22.35,0-43.14,3.9-61.8,11.6a130.13,130.13,0,0,0-51.42,37.84c-40.76,49.48-18.74,93.5-1,128.87l1.65,3.31c12,24.14,21.77,45.94,19.19,68.18L140,393l1.8,1L252.34,453.3l3.07,1.65,1.18-3.27c8-22.18,22.48-39.07,37.87-44.1,11.62-3.79,24-4.16,34.85-4.49,12.24-.37,21.91-0.66,26.52-5.92,6.39-7.31,4.34-17.33,2.69-25.37a54.75,54.75,0,0,1-1.1-6.59c-0.18-2.71.22-3,1.43-4a10.83,10.83,0,0,0,4.32-6.93c0.85-4.07.13-6.85-1.08-8.65,2.37-2.7,4.51-5.77,4.5-8.09,0-1.64-1-3-2.2-4.81-2.55-3.7-4.19-6.54-1.92-9.45,2.1-2.7,5.85-5.24,9.47-7.69,5.12-3.47,10-6.75,11-11.1,1.87-7.6-4.58-15.34-20.89-32.49-12.68-13.33-12.22-22.44-11.73-32.08,0.1-1.9.2-3.87,0.19-5.85V233c0-7,0-23.52-7.43-40.53-9.35-21.38-26.92-35.87-52.23-43.07a209,209,0,0,0-57.23-8.22h0Z" transform="translate(-97.31 -141.14)"/><g id="cogs"><path id="cog3" class="cls-2" d="M252.33,235.38l4,7.67-4.9,8.28a49.08,49.08,0,0,0,8.36,8.19l8.17-5.06,7.74,3.85,0.9,9.58a48.61,48.61,0,0,0,11.57,1.72l3.64-8.91,8.52-1.43,6.36,7.22a48.83,48.83,0,0,0,10.37-5.4l-2.29-9.35,6-6.17,9.38,2.11a49,49,0,0,0,5.22-10.47L328.06,231l1.27-8.55,8.83-3.81a49.94,49.94,0,0,0-.62-5.82,50.67,50.67,0,0,0-1.32-5.71l-9.59-.71-4-7.66,4.9-8.27a49.15,49.15,0,0,0-8.35-8.19L311,187.3l-7.74-3.85-0.89-9.58a48.34,48.34,0,0,0-11.57-1.72l-3.64,8.9-8.52,1.44-6.36-7.22a48.47,48.47,0,0,0-10.37,5.41L264.2,190l-6,6.17-9.38-2.11a49.05,49.05,0,0,0-5.22,10.47l7.34,6.22-1.27,8.55-8.83,3.81a49.3,49.3,0,0,0,1.94,11.53Zm48.38-7.91a13,13,0,0,0-3.27-16.9l6.65-20.47a34.06,34.06,0,0,1,9.69,54.66ZM256.64,230l21.51-2.67a13,13,0,0,0,16.28,5.62l14.41,16A34.08,34.08,0,0,1,256.64,230Zm33.73-3.81a5.36,5.36,0,1,1,4.4-6.18A5.36,5.36,0,0,1,290.37,226.16Zm-34.84-2.55A34.06,34.06,0,0,1,298,187.89l-8.43,20a13.37,13.37,0,0,0-2.26.18,13,13,0,0,0-10.75,11.1Z" transform="translate(-97.31 -141.14)"/><path id="cog1" class="cls-3" d="M115.52,252.17l2.15,5.63-4.07,5.34a34.36,34.36,0,0,0,5.13,6.34l6.06-2.85,5.05,3.29-0.15,6.7a33.91,33.91,0,0,0,7.88,2.12l3.24-5.88,6-.31,3.82,5.52a33.82,33.82,0,0,0,7.62-2.92l-0.83-6.66,4.69-3.79,6.33,2.21a34,34,0,0,0,4.45-6.83l-4.59-4.9,1.57-5.82,6.42-1.93a33.8,33.8,0,0,0,0-4.08,34.42,34.42,0,0,0-.45-4.06l-6.59-1.26-2.15-5.63,4.06-5.34a34,34,0,0,0-5.13-6.34L160,223.59,155,220.3l0.15-6.71a34,34,0,0,0-7.88-2.12L144,217.35l-6,.31-3.82-5.51a33.85,33.85,0,0,0-7.62,2.91l0.83,6.66-4.68,3.79-6.33-2.21a34.1,34.1,0,0,0-4.46,6.83l4.58,4.9-1.57,5.82-6.43,1.93a35.08,35.08,0,0,0,.42,8.14Zm34.14-1.59a9.08,9.08,0,0,0-.91-12L155,225a23.75,23.75,0,0,1,2.32,38.64Zm-30.72-1.8,15.11-.12a9.08,9.08,0,0,0,8.83,5.53,9.48,9.48,0,0,0,2-.33l8.7,12.24A23.76,23.76,0,0,1,118.94,248.78Zm23.67,0.07a3.74,3.74,0,1,1,3.54-3.92A3.74,3.74,0,0,1,142.6,248.85Zm-23.93-4.57A23.76,23.76,0,0,1,151,223l-7.45,13.15a9.47,9.47,0,0,0-1.58-.06,9.09,9.09,0,0,0-8.34,6.83Z" transform="translate(-97.31 -141.14)"/><path id="cog2" class="cls-4" d="M169.59,218.8l4.71,6.38-3.27,8.2a45,45,0,0,0,8.74,6.24l6.7-5.75,7.56,2.4,2.17,8.56a44.32,44.32,0,0,0,10.74-.08l2-8.59,7.53-2.51,6.79,5.65a44.3,44.3,0,0,0,8.64-6.38l-3.4-8.15,4.61-6.46,8.8,0.59a44.57,44.57,0,0,0,3.25-10.23l-7.54-4.6-0.06-7.94,7.47-4.71a44.73,44.73,0,0,0-3.4-10.19l-8.8.72-4.71-6.39,3.28-8.2a45.06,45.06,0,0,0-8.74-6.24L216,166.88l-7.57-2.4-2.17-8.57a44.41,44.41,0,0,0-10.74.08l-2,8.59L186,167.1l-6.79-5.65a44.26,44.26,0,0,0-8.64,6.38l3.4,8.15-4.61,6.45-8.81-.58a44.66,44.66,0,0,0-3.25,10.23l7.54,4.6,0.06,7.93-7.47,4.71a45.67,45.67,0,0,0,3.39,10.19Zm42.76-14A12,12,0,0,0,207,189.9l3.13-19.51a31.28,31.28,0,0,1,16.54,48.21Zm-39.61,8.52,19.13-5.47A12,12,0,0,0,205,211.72a11.74,11.74,0,0,0,2.41-1.12l15.34,12.47A31.29,31.29,0,0,1,172.73,213.29ZM202.78,205a4.92,4.92,0,1,1,3.11-6.22A4.93,4.93,0,0,1,202.78,205Zm-32,2.63a31.28,31.28,0,0,1,33.48-38.43l-4.82,19.3a11.79,11.79,0,0,0-2,.48,12,12,0,0,0-8.18,11.59Z" transform="translate(-97.31 -141.14)"/></g><g id="reato"><g id="reato-r"><path class="cls-5" d="M476.09,246a24.39,24.39,0,0,0-24.3-24.4H429.73v78.08h9.76V270.36h10.45l19.23,29.28h11.71l-20.4-30.94A24.33,24.33,0,0,0,476.09,246Zm-36.6,14.64V231.42h12.3a14.59,14.59,0,0,1-.1,29.19h-12.2Z" transform="translate(-97.31 -141.14)"/></g><g id="reato-e"><polygon class="cls-5" points="403.58 124.34 431.21 124.34 431.21 114.58 403.58 114.58 403.58 90.18 436.09 90.18 436.09 80.42 393.82 80.42 393.82 158.5 436.28 158.5 436.28 148.74 403.58 148.74 403.58 124.34"/></g><g id="reato-a"><path class="cls-5" d="M543.43,299.64h10.74l7.51-15.13h41.58l7.42,15.13h10.74l-38.65-81Zm22.64-24.89,16.69-34,16.21,34h-32.9Z" transform="translate(-97.31 -141.14)"/></g><g id="reato-t"><polygon class="cls-5" points="521.2 90.18 538.57 90.18 538.57 158.5 548.33 158.5 548.33 90.18 565.71 90.18 565.71 80.42 521.2 80.42 521.2 90.18"/></g><g id="reato-o"><path class="cls-5" d="M707.9,218.63a42,42,0,1,0,42,42A42,42,0,0,0,707.9,218.63Zm0,74.28a32.31,32.31,0,1,1,32.31-32.31A32.4,32.4,0,0,1,707.9,292.91Z" transform="translate(-97.31 -141.14)"/></g></g><g id="under-text"><path id="r" class="cls-5" d="M433.33,327.76a5,5,0,0,1,1.78,9.67l4.18,6.35h-2.4l-3.94-6h-2.14v6h-2v-16h4.52Zm-2.52,8h2.5a3,3,0,1,0,0-6h-2.52v6Z" transform="translate(-97.31 -141.14)"/><path id="re" class="cls-5" d="M445.49,329.76v5h5.67v2h-5.67v5h6.71v2h-8.71v-16h8.67v2h-6.67Z" transform="translate(-97.31 -141.14)"/><path id="rea" class="cls-5" d="M469.69,343.78l-1.52-3.1h-8.53l-1.54,3.1h-2.2L464,327.16l7.93,16.61h-2.2Zm-2.4-5.1-3.32-7-3.42,7h6.75Z" transform="translate(-97.31 -141.14)"/><path id="reab" class="cls-5" d="M480.23,327.76a4.59,4.59,0,0,1,4.56,4.56,4.16,4.16,0,0,1-1.4,3.1,4.88,4.88,0,0,1,1.74,3.78,4.56,4.56,0,0,1-4.56,4.56h-4.9v-16h4.57Zm-2.54,7h3.24c1.06,0,1.86-1.26,1.86-2.42a2.56,2.56,0,0,0-2.54-2.54h-2.56v5Zm0,7h2.88a2.56,2.56,0,0,0,2.56-2.56c0-1.16-.8-2.42-1.86-2.42h-3.58v5Z" transform="translate(-97.31 -141.14)"/><path id="reabi" class="cls-5" d="M489.44,343.78v-16h2v16h-2Z" transform="translate(-97.31 -141.14)"/><path id="reabil" class="cls-5" d="M505.35,341.77v2h-9v-16h2v14h7Z" transform="translate(-97.31 -141.14)"/><path id="reabili" class="cls-5" d="M509.7,343.78v-16h2v16h-2Z" transform="translate(-97.31 -141.14)"/><path id="reabilit" class="cls-5" d="M521.47,329.76v14h-2v-14H515.9v-2H525v2h-3.56Z" transform="translate(-97.31 -141.14)"/><path id="reabilita" class="cls-5" d="M540.33,343.78l-1.52-3.1h-8.53l-1.54,3.1h-2.2l8.07-16.61,7.93,16.61h-2.2Zm-2.4-5.1-3.32-7-3.42,7h6.75Z" transform="translate(-97.31 -141.14)"/><path id="reabilitac" class="cls-5" d="M559.21,341.85a8.55,8.55,0,0,1-5.6,2.5v1.1a2.52,2.52,0,1,1-3.3,2.4h1.54a1,1,0,1,0,1-1h-0.76v-2.56a8.61,8.61,0,1,1,7.15-14.63l-1.4,1.4a6.63,6.63,0,1,0,0,9.37Z" transform="translate(-97.31 -141.14)"/><path id="reabilitaca" class="cls-5" d="M575.47,343.78l-1.52-3.1h-8.53l-1.54,3.1h-2.2l8.07-16.61,7.93,16.61h-2.2ZM565.12,324.7a3.47,3.47,0,0,1,2.4-1.84,3.51,3.51,0,0,1,2.8.62,1.51,1.51,0,0,0,2.24-.54l1.78,0.9a3.42,3.42,0,0,1-2.42,1.84,2.79,2.79,0,0,1-.7.08,3.43,3.43,0,0,1-2.08-.7,1.45,1.45,0,0,0-1.2-.26,1.48,1.48,0,0,0-1,.8Zm7.95,14-3.33-7-3.42,7h6.75Z" transform="translate(-97.31 -141.14)"/><path id="reabilitacao" class="cls-5" d="M596.85,335.77a8.61,8.61,0,1,1-8.61-8.61A8.62,8.62,0,0,1,596.85,335.77Zm-15.23,0a6.63,6.63,0,1,0,6.63-6.63A6.65,6.65,0,0,0,581.62,335.77Z" transform="translate(-97.31 -141.14)"/><path id="reabilitacaoe" class="cls-5" d="M611.13,329.76v5h5.67v2h-5.67v5h6.71v2h-8.71v-16h8.67v2h-6.67Z" transform="translate(-97.31 -141.14)"/><path id="reabilitacaoem" class="cls-5" d="M640.3,343.78L637.76,333l-5.71,11.39L626.41,333l-2.58,10.79h-2l4-16.61,6.29,12.71,6.37-12.71,3.92,16.61h-2Z" transform="translate(-97.31 -141.14)"/><path id="reabilitacaoemt" class="cls-5" d="M659.26,329.76v14h-2v-14H653.7v-2h9.13v2h-3.56Z" transform="translate(-97.31 -141.14)"/><path id="reabilitacaoemte" class="cls-5" d="M669,329.76v5h5.67v2H669v5h6.71v2H667v-16h8.67v2H669Z" transform="translate(-97.31 -141.14)"/><path id="reabilitacaoemter" class="cls-5" d="M685,327.76a5,5,0,0,1,1.78,9.67l4.18,6.35h-2.4l-3.94-6h-2.14v6h-2v-16H685Zm-2.52,8H685a3,3,0,1,0,0-6h-2.52v6Z" transform="translate(-97.31 -141.14)"/><path id="reabilitacaoemtera" class="cls-5" d="M707.86,343.78l-1.52-3.1h-8.53l-1.54,3.1h-2.2l8.07-16.61,7.93,16.61h-2.2Zm-2.4-5.1-3.33-7-3.42,7h6.75Z" transform="translate(-97.31 -141.14)"/><path id="reabilitacaoemterap" class="cls-5" d="M718.39,327.76a5,5,0,0,1,0,10h-2.5v6h-2v-16h4.52Zm-2.52,8h2.5a3,3,0,1,0,0-6h-2.52v6Z" transform="translate(-97.31 -141.14)"/><path id="reabilitacaoemterapi" class="cls-5" d="M727.6,343.78v-16h2v16h-2Z" transform="translate(-97.31 -141.14)"/><path id="reabilitacaoemterapia" class="cls-5" d="M747.22,343.78l-1.52-3.1h-8.53l-1.54,3.1h-2.2l8.07-16.61,7.93,16.61h-2.2Zm-2.4-5.1-3.33-7-3.42,7h6.75Z" transform="translate(-97.31 -141.14)"/><path id="reabilitacaoemterapiao" class="cls-5" d="M445.42,365.8a8.61,8.61,0,1,1-8.61-8.61A8.62,8.62,0,0,1,445.42,365.8Zm-15.23,0a6.63,6.63,0,1,0,6.63-6.63A6.65,6.65,0,0,0,430.19,365.8Z" transform="translate(-97.31 -141.14)"/><path id="reabilitacaoemterapiaoc" class="cls-5" d="M463.75,371.89a8.61,8.61,0,1,1,0-12.17l-1.4,1.4a6.63,6.63,0,1,0,0,9.37Z" transform="translate(-97.31 -141.14)"/><path id="reabilitacaoemterapiaocu" class="cls-5" d="M480.24,368.1a6.31,6.31,0,1,1-12.61,0V357.8h2V368.1a4.32,4.32,0,0,0,8.65,0V357.8h2V368.1Z" transform="translate(-97.31 -141.14)"/><path id="reabilitacaoemterapiaocup" class="cls-5" d="M489.6,357.8a5,5,0,0,1,0,10h-2.5v6h-2v-16h4.52Zm-2.52,8h2.5a3,3,0,0,0,0-6h-2.52v6Z" transform="translate(-97.31 -141.14)"/><path id="reabilitacaoemterapiaocupa" class="cls-5" d="M509.1,373.81l-1.52-3.1H499l-1.54,3.1h-2.2l8.07-16.62,7.93,16.62h-2.2Zm-2.4-5.1-3.32-7-3.42,7h6.75Z" transform="translate(-97.31 -141.14)"/><path id="reabilitacaoemterapiaocupac" class="cls-5" d="M528,371.89a8.61,8.61,0,1,1,0-12.17l-1.4,1.4a6.63,6.63,0,1,0,0,9.37Z" transform="translate(-97.31 -141.14)"/><path id="reabilitacaoemterapiaocupaci" class="cls-5" d="M531.94,373.81v-16h2v16h-2Z" transform="translate(-97.31 -141.14)"/><path id="reabilitacaoemterapiaocupacio" class="cls-5" d="M555.43,365.8a8.61,8.61,0,1,1-8.61-8.61A8.62,8.62,0,0,1,555.43,365.8Zm-15.23,0a6.63,6.63,0,1,0,6.63-6.63A6.65,6.65,0,0,0,540.19,365.8Z" transform="translate(-97.31 -141.14)"/><path id="reabilitacaoemterapiaocupacion" class="cls-5" d="M570.09,357.8h2v16.61l-10.43-11.93v11.33h-2V357.19l10.43,11.93V357.8Z" transform="translate(-97.31 -141.14)"/><path id="reabilitacaoemterapiaocupaciona" class="cls-5" d="M589.65,373.81l-1.52-3.1H579.6l-1.54,3.1h-2.2l8.07-16.62,7.93,16.62h-2.2Zm-2.4-5.1-3.32-7-3.42,7h6.75Z" transform="translate(-97.31 -141.14)"/><path id="reabilitacaoemterapiaocupacional" class="cls-5" d="M604.66,371.81v2h-9v-16h2v14h7Z" transform="translate(-97.31 -141.14)"/></g></svg>