<svg id="Layer_1" data-name="Layer 1" xmlns="http://www.w3.org/2000/svg" viewBox="0 0 320.17 84"><defs><style>.cls-1{fill:#1b3c6c;}</style></defs><title>reato</title><g id="reato"><g id="reato-r"><path class="cls-1" d="M378.78,104.86a24.39,24.39,0,0,0-24.3-24.4H332.42v78.08h9.76V129.22h10.45l19.23,29.28h11.71l-20.4-30.94A24.33,24.33,0,0,0,378.78,104.86Zm-36.6,14.64V90.28h12.3a14.6,14.6,0,0,1-.1,29.19h-12.2v0Z" transform="translate(-332.42 -77.49)"/></g><g id="reato-e"><polygon class="cls-1" points="71.16 46.85 98.79 46.85 98.79 37.09 71.16 37.09 71.16 12.69 103.67 12.69 103.67 2.93 61.4 2.93 61.4 81.01 103.86 81.01 103.86 71.25 71.16 71.25 71.16 46.85"/></g><g id="reato-a"><path class="cls-1" d="M446.12,158.5h10.74l7.51-15.13H506l7.42,15.13h10.74l-38.65-81Zm22.64-24.89,16.69-34,16.21,34h-32.9Z" transform="translate(-332.42 -77.49)"/></g><g id="reato-t"><polygon class="cls-1" points="188.78 12.69 206.15 12.69 206.15 81.01 215.91 81.01 215.91 12.69 233.29 12.69 233.29 2.93 188.78 2.93 188.78 12.69"/></g><g id="reato-o"><path class="cls-1" d="M610.59,77.49a42,42,0,1,0,42,42A42,42,0,0,0,610.59,77.49Zm0,74.28a32.31,32.31,0,1,1,32.31-32.31h0A32.4,32.4,0,0,1,610.59,151.77Z" transform="translate(-332.42 -77.49)"/></g></g></svg>