<?xml version="1.0" standalone="no"?>
<!DOCTYPE svg PUBLIC "-//W3C//DTD SVG 20010904//EN"
 "http://www.w3.org/TR/2001/REC-SVG-20010904/DTD/svg10.dtd">
<svg version="1.0" xmlns="http://www.w3.org/2000/svg"
 width="406.000000pt" height="406.000000pt" viewBox="0 0 406.000000 406.000000"
 preserveAspectRatio="xMidYMid meet">
<metadata>
Created by potrace 1.11, written by Peter Selinger 2001-2013
</metadata>
<g transform="translate(0.000000,406.000000) scale(0.100000,-0.100000)"
fill="#000000" stroke="none">
<path d="M2081 4039 c-31 -84 -143 -349 -146 -349 -1 0 -42 -7 -91 -15 -49 -9
-102 -18 -119 -21 -16 -2 -54 -9 -83 -14 -40 -7 -57 -7 -66 3 -7 6 -61 68
-121 137 -148 169 -130 154 -168 140 -122 -48 -384 -190 -393 -215 -3 -6 16
-96 41 -199 l46 -189 -50 -51 c-27 -28 -83 -86 -124 -128 -52 -54 -81 -75 -93
-72 -11 2 -91 20 -179 39 -88 20 -167 38 -176 41 -18 5 -47 -37 -117 -166 -45
-84 -112 -241 -112 -263 0 -8 34 -42 75 -76 41 -34 80 -68 87 -74 7 -7 41 -36
76 -66 53 -45 61 -57 57 -80 -2 -14 -14 -91 -26 -171 -11 -80 -24 -148 -27
-151 -4 -4 -41 -21 -82 -39 -41 -18 -88 -38 -105 -46 -16 -7 -61 -27 -100 -43
l-70 -29 -1 -50 c-1 -27 2 -71 6 -98 4 -27 11 -71 14 -99 6 -45 17 -92 47
-206 5 -20 15 -36 21 -36 7 0 47 -3 88 -6 41 -3 117 -9 169 -13 112 -7 113 -8
126 -16 6 -4 46 -76 89 -160 l79 -153 -48 -80 c-26 -44 -55 -93 -65 -110 -9
-16 -34 -58 -54 -93 l-37 -63 27 -32 c69 -83 216 -227 288 -282 l36 -27 117
72 c65 40 130 81 145 91 15 11 30 19 34 19 4 0 15 7 25 16 15 14 30 8 178 -66
89 -45 161 -87 162 -93 0 -7 2 -28 4 -47 11 -88 15 -131 20 -205 9 -110 12
-127 27 -136 11 -7 69 -21 133 -33 11 -2 38 -7 60 -11 59 -11 80 -14 185 -21
l95 -6 19 48 c24 61 128 318 131 321 0 1 17 5 36 8 19 3 97 16 174 30 l140 24
30 -32 c17 -18 59 -66 95 -107 112 -128 142 -160 151 -160 14 0 208 91 274
128 109 62 155 96 150 112 -3 8 -23 89 -45 180 -22 91 -43 171 -45 178 -3 8
50 69 122 143 l128 129 105 -25 c58 -14 116 -27 130 -30 14 -3 52 -12 85 -20
l60 -15 20 26 c48 60 207 382 204 412 0 4 -68 63 -150 132 l-150 125 6 55 c3
30 7 66 9 80 5 27 12 69 21 135 14 95 1 83 193 166 l177 76 0 79 c-1 149 -52
399 -84 408 -9 3 -65 8 -126 12 -60 3 -121 8 -135 9 -14 2 -46 3 -72 4 l-47 1
-35 63 c-18 34 -57 107 -85 162 l-50 99 21 36 c79 131 178 303 178 308 0 23
-221 247 -311 315 l-35 27 -100 -62 c-54 -33 -131 -80 -170 -104 l-72 -42
-161 79 c-158 77 -161 79 -162 111 0 18 -2 41 -4 52 -2 10 -7 58 -10 105 -4
47 -9 94 -11 104 -2 10 -4 38 -5 62 -2 40 -5 44 -38 53 -92 27 -225 48 -362
58 -87 6 -89 6 -98 -17z m153 -605 c16 -4 36 -8 45 -9 9 0 37 -5 63 -9 l47 -8
-20 -52 c-11 -28 -26 -64 -34 -81 -7 -16 -23 -53 -34 -81 -11 -28 -29 -71 -40
-95 -11 -24 -49 -114 -84 -199 -150 -360 -134 -330 -176 -330 -20 0 -64 -7
-96 -15 -198 -51 -351 -204 -396 -399 l-13 -53 -95 -21 c-185 -40 -376 -81
-411 -87 -19 -3 -51 -10 -70 -15 -78 -20 -292 -61 -296 -57 -6 6 -6 202 0 237
3 14 7 51 11 83 3 31 12 77 20 102 7 25 11 45 9 45 -7 0 58 173 93 248 123
259 338 490 585 629 149 82 366 154 517 169 36 3 68 8 70 10 6 6 276 -4 305
-12z m571 -212 c105 -65 260 -205 335 -302 19 -25 37 -47 40 -50 16 -14 94
-145 128 -215 38 -77 86 -200 97 -248 2 -12 11 -51 19 -87 34 -148 39 -385 10
-535 -36 -195 -115 -388 -222 -548 -28 -41 -57 -81 -64 -88 -7 -8 -31 -35 -52
-62 -30 -36 -42 -45 -52 -36 -7 6 -120 152 -251 326 -131 173 -248 327 -260
342 -28 32 -28 28 -1 87 31 72 44 130 47 210 5 144 -48 279 -151 389 l-56 61
132 404 c72 223 135 413 139 423 6 16 12 15 64 -14 32 -18 76 -43 98 -57z
m-700 -983 c55 -16 129 -91 145 -148 29 -107 -23 -215 -125 -262 -176 -81
-361 95 -293 279 40 109 155 163 273 131z m-528 -501 c6 -13 31 -46 57 -75
134 -149 345 -210 547 -158 l64 16 39 -43 c21 -24 58 -65 83 -93 25 -27 59
-66 77 -85 18 -19 59 -64 91 -100 100 -111 128 -142 213 -236 45 -50 82 -96
82 -102 0 -6 -26 -26 -57 -45 -164 -99 -292 -145 -528 -193 -64 -13 -331 -13
-411 1 -483 79 -864 360 -1078 793 -27 55 -89 223 -84 228 3 2 46 9 138 19 30
4 66 8 80 10 14 2 50 7 80 11 30 4 64 8 75 9 11 2 45 6 75 9 30 4 89 11 130
16 41 6 100 13 130 16 30 4 78 10 105 14 78 12 81 11 92 -12z"/>
</g>
</svg>
